<svg xmlns="http://www.w3.org/2000/svg" width="32" height="32" fill="none"><path fill="#FFFBFE" d="M24.668 10.003h-3.333V8.669A5.34 5.34 0 0 0 16 3.336a5.34 5.34 0 0 0-5.333 5.333v1.334H7.335a2.67 2.67 0 0 0-2.667 2.666v11.334c0 3.053 1.613 4.666 4.667 4.666h13.333c3.053 0 4.667-1.613 4.667-4.666V12.669a2.67 2.67 0 0 0-2.667-2.666M12.001 8.669c0-2.205 1.795-4 4-4s4 1.795 4 4v1.334h-8zm14 15.334c0 2.305-1.028 3.333-3.333 3.333H9.335C7.029 27.336 6 26.308 6 24.003V12.669c0-.736.598-1.333 1.334-1.333h3.333v3.333a.667.667 0 0 0 1.333 0v-3.333h8v3.333a.667.667 0 0 0 1.334 0v-3.333h3.333c.736 0 1.333.597 1.333 1.333z"/></svg>